<?xml version="1.0" encoding="utf-8"?>
<svg version="1" width="550pt" height="550pt" viewBox="0 0 550.000000 550.000000" xmlns="http://www.w3.org/2000/svg" xmlns:bx="https://boxy-svg.com">
  <defs>
    <bx:guide x="275" y="229.041" angle="0"/>
    <bx:guide x="-5.023" y="319.452" angle="0"/>
    <bx:guide x="204" y="275" angle="90"/>
  </defs>
  <g transform="matrix(0.111607, 0, 0, -0.111607, 186.250427, 184.319)" id="g4" bx:origin="-0.144 -0.488">
    <path d="m 1280,832 q 0,26 -19,45 -19,19 -45,19 -172,0 -318,-49.5 Q 752,797 638.5,712.5 525,628 403,493 q -19,-21 -19,-45 0,-26 19,-45 19,-19 45,-19 24,0 45,19 27,24 74,71 47,47 67,66 137,124 268.5,176 131.5,52 313.5,52 26,0 45,19 19,19 19,45 z m 512,198 q 0,-95 -20,-193 Q 1726,613 1587.5,454 1449,295 1230,186 1016,78 792,78 q -148,0 -286,47 -15,5 -88,42 -73,37 -96,37 -16,0 -39.5,-32 Q 259,140 237.5,102 216,64 185,32 154,0 125,0 95,0 74,11 53,22 43,35 33,48 16,77 14,81 10,88 6,95 4.5,98 3,101 1.5,107.5 0,114 0,121 q 0,35 31,73.5 31,38.5 68,65.5 37,27 68,56 31,29 31,48 0,4 -14,38 -14,34 -16,44 -9,51 -9,104 0,115 43.5,220 43.5,105 119,184.5 75.5,79.5 170.5,139 95,59.5 204,95.5 55,18 145,25.5 90,7.5 179.5,9 89.5,1.5 178.5,6 89,4.5 163.5,24 74.5,19.5 113.5,56.5 l 29.5,29.5 q 0,0 29.5,28 29.5,28 27,20 -2.5,-8 36.5,16 39,24 43.5,4.5 39,0 70.5,-46 31.5,-46 47.5,-112 16,-66 24,-124 8,-58 8,-96 z" id="path6"/>
  </g>
  <g transform="matrix(0.104167, 0, 0, -0.104167, 35, 330.986176)" id="g2991" bx:origin="0.612 0.47">
    <path d="M 1920,384 Q 1920,225 1807.5,112.5 1695,0 1536,0 H 448 Q 263,0 131.5,131.5 0,263 0,448 0,580 71,689.5 142,799 258,853 q -2,28 -2,43 0,212 150,362 150,150 362,150 158,0 286.5,-88 128.5,-88 187.5,-230 70,62 166,62 106,0 181,-75 75,-75 75,-181 0,-75 -41,-138 129,-30 213,-134.5 84,-104.5 84,-239.5 z" id="path2993"/>
  </g>
  <g transform="matrix(0.104167, 0, 0, -0.104167, 314.216461, 331.309052)" id="g3039" bx:origin="-0.784 0.514">
    <path d="m 896,640 q 0,106 -75,181 -75,75 -181,75 -106,0 -181,-75 -75,-75 -75,-181 0,-106 75,-181 75,-75 181,-75 106,0 181,75 75,75 75,181 z m 768,-512 q 0,52 -38,90 -38,38 -90,38 -52,0 -90,-38 -38,-38 -38,-90 0,-53 37.5,-90.5 Q 1483,0 1536,0 1589,0 1626.5,37.5 1664,75 1664,128 z m 0,1024 q 0,52 -38,90 -38,38 -90,38 -52,0 -90,-38 -38,-38 -38,-90 0,-53 37.5,-90.5 37.5,-37.5 90.5,-37.5 53,0 90.5,37.5 37.5,37.5 37.5,90.5 z M 1280,731 V 546 q 0,-10 -7,-19.5 -7,-9.5 -16,-10.5 l -155,-24 q -11,-35 -32,-76 34,-48 90,-115 7,-10 7,-20 0,-12 -7,-19 -23,-30 -82.5,-89.5 Q 1018,113 999,113 q -11,0 -21,7 L 863,210 Q 826,191 786,179 775,71 763,24 756,0 733,0 H 547 Q 536,0 527,7.5 518,15 517,25 l -23,153 q -34,10 -75,31 L 301,120 q -7,-7 -20,-7 -11,0 -21,8 -144,133 -144,160 0,9 7,19 10,14 41,53 31,39 47,61 -23,44 -35,82 L 24,520 Q 14,521 7,529.5 0,538 0,549 v 185 q 0,10 7,19.5 7,9.5 16,10.5 l 155,24 q 11,35 32,76 -34,48 -90,115 -7,11 -7,20 0,12 7,20 22,30 82,89 60,59 79,59 11,0 21,-7 l 115,-90 q 34,18 77,32 11,108 23,154 7,24 30,24 h 186 q 11,0 20,-7.5 9,-7.5 10,-17.5 l 23,-153 q 34,-10 75,-31 l 118,89 q 8,7 20,7 11,0 21,-8 144,-133 144,-160 0,-9 -7,-19 -12,-16 -42,-54 -30,-38 -45,-60 23,-48 34,-82 l 152,-23 q 10,-2 17,-10.5 7,-8.5 7,-19.5 z M 1920,198 V 58 q 0,-16 -149,-31 -12,-27 -30,-52 51,-113 51,-138 0,-4 -4,-7 -122,-71 -124,-71 -8,0 -46,47 -38,47 -52,68 -20,-2 -30,-2 -10,0 -30,2 -14,-21 -52,-68 -38,-47 -46,-47 -2,0 -124,71 -4,3 -4,7 0,25 51,138 -18,25 -30,52 -149,15 -149,31 v 140 q 0,16 149,31 13,29 30,52 -51,113 -51,138 0,4 4,7 4,2 35,20 31,18 59,34 28,16 30,16 8,0 46,-46.5 38,-46.5 52,-67.5 20,2 30,2 10,0 30,-2 51,71 92,112 l 6,2 q 4,0 124,-70 4,-3 4,-7 0,-25 -51,-138 17,-23 30,-52 149,-15 149,-31 z m 0,1024 v -140 q 0,-16 -149,-31 -12,-27 -30,-52 51,-113 51,-138 0,-4 -4,-7 -122,-71 -124,-71 -8,0 -46,47 -38,47 -52,68 -20,-2 -30,-2 -10,0 -30,2 -14,-21 -52,-68 -38,-47 -46,-47 -2,0 -124,71 -4,3 -4,7 0,25 51,138 -18,25 -30,52 -149,15 -149,31 v 140 q 0,16 149,31 13,29 30,52 -51,113 -51,138 0,4 4,7 4,2 35,20 31,18 59,34 28,16 30,16 8,0 46,-46.5 38,-46.5 52,-67.5 20,2 30,2 10,0 30,-2 51,71 92,112 l 6,2 q 4,0 124,-70 4,-3 4,-7 0,-25 -51,-138 17,-23 30,-52 149,-15 149,-31 z" id="path3041"/>
  </g>
  <g transform="matrix(0.132013, 0, 0, -0.132013, 144.410782, 502.724304)" id="g3003" bx:origin="0.065 1.288">
    <path d="M 363,0 454,91 219,326 128,235 V 128 H 256 V 0 h 107 z m 523,928 q 0,22 -22,22 -10,0 -17,-7 L 305,401 q -7,-7 -7,-17 0,-22 22,-22 10,0 17,7 l 542,542 q 7,7 7,17 z M 832,1120 1248,704 416,-128 H 0 v 416 z m 683,-96 q 0,-53 -37,-90 l -166,-166 -416,416 166,165 q 36,38 90,38 53,0 91,-38 l 235,-234 q 37,-39 37,-91 z" id="path3005"/>
  </g>
</svg>